<svg xmlns="http://www.w3.org/2000/svg" viewBox="0 0 128 128">
  <defs>
    <linearGradient id="bg" x1="0%" y1="0%" x2="100%" y2="100%">
      <stop offset="0%" style="stop-color:#87C38F"/>
      <stop offset="100%" style="stop-color:#226F54"/>
    </linearGradient>
  </defs>
  <!-- Background circle -->
  <circle cx="64" cy="64" r="60" fill="url(#bg)"/>
  
  <!-- Neural network nodes (AI hint) -->
  <g fill="white" opacity="0.3">
    <circle cx="24" cy="40" r="4"/>
    <circle cx="20" cy="70" r="3"/>
    <circle cx="30" cy="100" r="4"/>
    <circle cx="100" cy="95" r="3"/>
    <circle cx="108" cy="70" r="4"/>
  </g>
  
  <!-- Neural connections -->
  <g stroke="white" stroke-width="1.5" opacity="0.25" fill="none">
    <path d="M24 40 Q 40 50 45 65"/>
    <path d="M20 70 Q 35 75 45 78"/>
    <path d="M30 100 Q 50 90 55 82"/>
    <path d="M100 95 Q 85 88 78 80"/>
    <path d="M108 70 Q 95 68 85 70"/>
  </g>
  
  <!-- Checkmark -->
  <path d="M28 62 L52 86 L90 40" 
        fill="none" 
        stroke="white" 
        stroke-width="11" 
        stroke-linecap="round" 
        stroke-linejoin="round"/>
  
  <!-- AI Sparkles -->
  <g fill="white" opacity="0.95">
    <!-- Top right sparkle (larger) -->
    <path d="M98 26 L101 18 L104 26 L112 29 L104 32 L101 40 L98 32 L90 29 Z"/>
    <!-- Small sparkle -->
    <path d="M110 50 L111.5 45 L113 50 L118 51.5 L113 53 L111.5 58 L110 53 L105 51.5 Z"/>
    <!-- Additional tiny sparkle -->
    <path d="M88 18 L89 15 L90 18 L93 19 L90 20 L89 23 L88 20 L85 19 Z"/>
  </g>
</svg>
